<mxfile host="app.diagrams.net" modified="2021-01-25T19:50:23.878Z" agent="5.0 (Windows NT 10.0; Win64; x64) AppleWebKit/537.36 (KHTML, like Gecko) Chrome/87.0.4280.141 Safari/537.36" etag="ojnON1krNNSd4o-VZE94" version="14.1.1" type="github">
  <diagram name="Page-1" id="90a13364-a465-7bf4-72fc-28e22215d7a0">
    <mxGraphModel dx="934" dy="459" grid="0" gridSize="10" guides="1" tooltips="1" connect="1" arrows="1" fold="1" page="1" pageScale="1.5" pageWidth="1169" pageHeight="826" background="#ffffff" math="0" shadow="0">
      <root>
        <mxCell id="0" style=";html=1;" />
        <mxCell id="1" style=";html=1;" parent="0" />
        <mxCell id="9q9KH-oXFLpbSydNfVMp-1" value="" style="rounded=0;whiteSpace=wrap;html=1;sketch=1;" vertex="1" parent="1">
          <mxGeometry x="80" y="320" width="240" height="30" as="geometry" />
        </mxCell>
        <mxCell id="9q9KH-oXFLpbSydNfVMp-2" value="" style="endArrow=none;html=1;shadow=0;sketch=1;" edge="1" parent="1">
          <mxGeometry width="50" height="50" relative="1" as="geometry">
            <mxPoint x="120" y="350" as="sourcePoint" />
            <mxPoint x="120" y="320" as="targetPoint" />
          </mxGeometry>
        </mxCell>
        <mxCell id="9q9KH-oXFLpbSydNfVMp-3" value="" style="endArrow=none;html=1;sketch=1;" edge="1" parent="1">
          <mxGeometry width="50" height="50" relative="1" as="geometry">
            <mxPoint x="160" y="350" as="sourcePoint" />
            <mxPoint x="160" y="320" as="targetPoint" />
          </mxGeometry>
        </mxCell>
        <mxCell id="9q9KH-oXFLpbSydNfVMp-6" value="" style="endArrow=none;html=1;sketch=1;" edge="1" parent="1">
          <mxGeometry width="50" height="50" relative="1" as="geometry">
            <mxPoint x="280" y="350" as="sourcePoint" />
            <mxPoint x="280" y="320" as="targetPoint" />
          </mxGeometry>
        </mxCell>
        <mxCell id="9q9KH-oXFLpbSydNfVMp-8" value="" style="rounded=0;whiteSpace=wrap;html=1;fillColor=#dae8fc;strokeColor=#6c8ebf;sketch=1;fillStyle=auto;" vertex="1" parent="1">
          <mxGeometry x="80" y="409" width="40" height="30" as="geometry" />
        </mxCell>
        <mxCell id="9q9KH-oXFLpbSydNfVMp-9" value="" style="endArrow=blockThin;html=1;endFill=1;entryX=0.5;entryY=0;entryDx=0;entryDy=0;exitX=0.5;exitY=1;exitDx=0;exitDy=0;" edge="1" parent="1" source="9q9KH-oXFLpbSydNfVMp-7" target="9q9KH-oXFLpbSydNfVMp-8">
          <mxGeometry width="50" height="50" relative="1" as="geometry">
            <mxPoint x="500" y="550" as="sourcePoint" />
            <mxPoint x="550" y="500" as="targetPoint" />
            <Array as="points">
              <mxPoint x="220" y="380" />
              <mxPoint x="100" y="380" />
            </Array>
          </mxGeometry>
        </mxCell>
        <mxCell id="9q9KH-oXFLpbSydNfVMp-10" value="" style="rounded=0;whiteSpace=wrap;html=1;sketch=1;" vertex="1" parent="1">
          <mxGeometry x="360" y="320" width="240" height="30" as="geometry" />
        </mxCell>
        <mxCell id="9q9KH-oXFLpbSydNfVMp-11" value="" style="endArrow=none;html=1;sketch=1;" edge="1" parent="1">
          <mxGeometry width="50" height="50" relative="1" as="geometry">
            <mxPoint x="400" y="350" as="sourcePoint" />
            <mxPoint x="400" y="320" as="targetPoint" />
          </mxGeometry>
        </mxCell>
        <mxCell id="9q9KH-oXFLpbSydNfVMp-12" value="" style="endArrow=none;html=1;sketch=1;" edge="1" parent="1">
          <mxGeometry width="50" height="50" relative="1" as="geometry">
            <mxPoint x="440" y="350" as="sourcePoint" />
            <mxPoint x="440" y="320" as="targetPoint" />
          </mxGeometry>
        </mxCell>
        <mxCell id="9q9KH-oXFLpbSydNfVMp-13" value="" style="endArrow=none;html=1;sketch=1;" edge="1" parent="1">
          <mxGeometry width="50" height="50" relative="1" as="geometry">
            <mxPoint x="560" y="350" as="sourcePoint" />
            <mxPoint x="560" y="320" as="targetPoint" />
          </mxGeometry>
        </mxCell>
        <mxCell id="9q9KH-oXFLpbSydNfVMp-14" value="" style="rounded=0;whiteSpace=wrap;html=1;fillColor=#f8cecc;strokeColor=#b85450;sketch=1;fillStyle=auto;" vertex="1" parent="1">
          <mxGeometry x="480" y="320" width="40" height="30" as="geometry" />
        </mxCell>
        <mxCell id="9q9KH-oXFLpbSydNfVMp-15" value="" style="rounded=0;whiteSpace=wrap;html=1;fillColor=#dae8fc;strokeColor=#6c8ebf;sketch=1;fillStyle=solid;" vertex="1" parent="1">
          <mxGeometry x="360" y="409" width="40" height="30" as="geometry" />
        </mxCell>
        <mxCell id="9q9KH-oXFLpbSydNfVMp-16" value="" style="endArrow=blockThin;html=1;endFill=1;entryX=0.5;entryY=0;entryDx=0;entryDy=0;exitX=0.5;exitY=1;exitDx=0;exitDy=0;sketch=0;" edge="1" parent="1" source="9q9KH-oXFLpbSydNfVMp-14" target="9q9KH-oXFLpbSydNfVMp-15">
          <mxGeometry width="50" height="50" relative="1" as="geometry">
            <mxPoint x="780" y="550" as="sourcePoint" />
            <mxPoint x="830" y="500" as="targetPoint" />
            <Array as="points">
              <mxPoint x="500" y="380" />
              <mxPoint x="380" y="380" />
            </Array>
          </mxGeometry>
        </mxCell>
        <mxCell id="9q9KH-oXFLpbSydNfVMp-17" value="&lt;b style=&quot;font-size: 18px&quot;&gt;int&lt;i&gt; * const &lt;/i&gt;p&lt;/b&gt;" style="text;html=1;strokeColor=none;fillColor=none;align=center;verticalAlign=middle;whiteSpace=wrap;rounded=0;sketch=0;" vertex="1" parent="1">
          <mxGeometry x="80" y="290" width="240" height="20" as="geometry" />
        </mxCell>
        <mxCell id="9q9KH-oXFLpbSydNfVMp-18" value="&lt;b style=&quot;font-size: 18px&quot;&gt;int&lt;i&gt;&amp;nbsp;const *&lt;/i&gt;p&lt;/b&gt;" style="text;html=1;strokeColor=none;fillColor=none;align=center;verticalAlign=middle;whiteSpace=wrap;rounded=0;" vertex="1" parent="1">
          <mxGeometry x="359" y="291" width="240" height="20" as="geometry" />
        </mxCell>
        <mxCell id="9q9KH-oXFLpbSydNfVMp-19" value="" style="rounded=0;whiteSpace=wrap;html=1;comic=0;dropTarget=0;container=0;perimeter=lifelinePerimeter;snapToPoint=0;fixDash=0;autosize=0;imageAspect=0;sketch=1;" vertex="1" parent="1">
          <mxGeometry x="640" y="320" width="240" height="30" as="geometry" />
        </mxCell>
        <mxCell id="9q9KH-oXFLpbSydNfVMp-20" value="" style="endArrow=none;html=1;sketch=1;" edge="1" parent="1">
          <mxGeometry width="50" height="50" relative="1" as="geometry">
            <mxPoint x="680" y="349.9999999999999" as="sourcePoint" />
            <mxPoint x="680" y="319.9999999999999" as="targetPoint" />
          </mxGeometry>
        </mxCell>
        <mxCell id="9q9KH-oXFLpbSydNfVMp-21" value="" style="endArrow=none;html=1;sketch=1;" edge="1" parent="1">
          <mxGeometry width="50" height="50" relative="1" as="geometry">
            <mxPoint x="720" y="349.9999999999999" as="sourcePoint" />
            <mxPoint x="720" y="319.9999999999999" as="targetPoint" />
          </mxGeometry>
        </mxCell>
        <mxCell id="9q9KH-oXFLpbSydNfVMp-22" value="" style="endArrow=none;html=1;sketch=1;" edge="1" parent="1">
          <mxGeometry width="50" height="50" relative="1" as="geometry">
            <mxPoint x="840" y="349.9999999999999" as="sourcePoint" />
            <mxPoint x="840" y="319.9999999999999" as="targetPoint" />
          </mxGeometry>
        </mxCell>
        <mxCell id="9q9KH-oXFLpbSydNfVMp-23" value="" style="rounded=0;whiteSpace=wrap;html=1;fillColor=#f8cecc;strokeColor=#b85450;sketch=1;fillStyle=solid;sketchStyle=rough;" vertex="1" parent="1">
          <mxGeometry x="760" y="320" width="40" height="30" as="geometry" />
        </mxCell>
        <mxCell id="9q9KH-oXFLpbSydNfVMp-24" value="" style="rounded=0;whiteSpace=wrap;html=1;fillColor=#dae8fc;strokeColor=#6c8ebf;sketch=1;fillStyle=solid;" vertex="1" parent="1">
          <mxGeometry x="640" y="409" width="40" height="30" as="geometry" />
        </mxCell>
        <mxCell id="9q9KH-oXFLpbSydNfVMp-25" value="" style="endArrow=blockThin;html=1;endFill=1;entryX=0.5;entryY=0;entryDx=0;entryDy=0;exitX=0.5;exitY=1;exitDx=0;exitDy=0;" edge="1" parent="1" source="9q9KH-oXFLpbSydNfVMp-23" target="9q9KH-oXFLpbSydNfVMp-24">
          <mxGeometry width="50" height="50" relative="1" as="geometry">
            <mxPoint x="1060" y="550" as="sourcePoint" />
            <mxPoint x="1110" y="500" as="targetPoint" />
            <Array as="points">
              <mxPoint x="780" y="380" />
              <mxPoint x="660" y="380" />
            </Array>
          </mxGeometry>
        </mxCell>
        <mxCell id="9q9KH-oXFLpbSydNfVMp-26" value="&lt;b style=&quot;font-size: 18px&quot;&gt;int&lt;i&gt;&amp;nbsp;const * const&amp;nbsp;&lt;/i&gt;p&lt;/b&gt;" style="text;html=1;strokeColor=none;fillColor=none;align=center;verticalAlign=middle;whiteSpace=wrap;rounded=0;sketch=0;" vertex="1" parent="1">
          <mxGeometry x="639" y="291" width="240" height="20" as="geometry" />
        </mxCell>
        <mxCell id="9q9KH-oXFLpbSydNfVMp-7" value="" style="rounded=0;whiteSpace=wrap;html=1;fillColor=#f8cecc;strokeColor=#b85450;horizontal=1;shadow=0;sketch=1;glass=0;fillStyle=solid;" vertex="1" parent="1">
          <mxGeometry x="200" y="320" width="40" height="30" as="geometry" />
        </mxCell>
      </root>
    </mxGraphModel>
  </diagram>
</mxfile>
